<svg width="1474" height="494" fill="none" xmlns="http://www.w3.org/2000/svg"><path d="m956.4 109-184 329a10 10 0 0 1-17.4.1l-187.7-329a10 10 0 0 1 10.5-14.8l184.2 33c1.2.1 2.4.1 3.5-.1L946 94.3a10 10 0 0 1 10.5 14.7Z" fill="url(#a)"/><path d="M849.7 51.1 713.6 77.8a5 5 0 0 0-4 4.6l-8.4 141.5a5 5 0 0 0 6 5.1l38-8.7a5 5 0 0 1 6 5.8l-11.3 55.2a5 5 0 0 0 6.4 5.8l23.4-7.1a5 5 0 0 1 6.4 5.8l-18 86.6c-1 5.4 6.1 8.4 9.1 3.7l2-3 111-221.5a5 5 0 0 0-5.4-7.2l-39 7.6a5 5 0 0 1-5.8-6.3l25.5-88.3a5 5 0 0 0-5.8-6.3Z" fill="url(#b)"/><path d="M490.6 247.5c0-32.5-40.7-63.3-103.1-82.4 14.4-63.6 8-114.2-20.2-130.4a43.8 43.8 0 0 0-22.4-5.6v22.3c4.6 0 8.3.9 11.4 2.6 13.6 7.8 19.5 37.5 14.9 75.7-1.1 9.4-2.9 19.3-5.1 29.4-19.6-4.8-41-8.5-63.5-10.9a487.8 487.8 0 0 0-41.6-50c32.6-30.3 63.2-46.9 84-46.9V29c-27.5 0-63.5 19.6-99.9 53.6-36.4-33.8-72.4-53.2-99.9-53.2v22.3c20.7 0 51.4 16.5 84 46.6-14 14.7-28 31.4-41.3 49.9a467 467 0 0 0-63.6 11c-2.3-10-4-19.7-5.2-29-4.7-38.2 1.1-67.9 14.6-75.8 3-1.8 6.9-2.6 11.5-2.6V29.5c-8.4 0-16 1.8-22.6 5.6-28.1 16.2-34.4 66.7-19.9 130.1C40.5 184.4 0 215.1 0 247.5c0 32.5 40.7 63.3 103.1 82.4-14.4 63.6-8 114.2 20.2 130.4a44 44 0 0 0 22.5 5.6c27.5 0 63.5-19.6 99.9-53.6 36.4 33.8 72.4 53.2 99.9 53.2 8.4 0 16-1.8 22.6-5.6 28.1-16.2 34.4-66.7 19.9-130.1 62-19.1 102.5-49.9 102.5-82.3Zm-130.2-66.7a450.4 450.4 0 0 1-13.5 39.5 473.3 473.3 0 0 0-27.5-47.4c14.2 2.1 27.9 4.7 41 7.9Zm-45.8 106.5a532.7 532.7 0 0 1-24.1 38.2 520.3 520.3 0 0 1-90.2.1 551.2 551.2 0 0 1-45-77.8 521.5 521.5 0 0 1 44.8-78.1 520.3 520.3 0 0 1 90.2-.1 551.2 551.2 0 0 1 45 77.8 560 560 0 0 1-20.7 39.9Zm32.3-13c5.4 13.4 10 26.8 13.8 39.8a448.8 448.8 0 0 1-41.2 8 552.4 552.4 0 0 0 27.4-47.8ZM245.5 381a412.3 412.3 0 0 1-27.8-32 619 619 0 0 0 55.3 0c-9 11.7-18.3 22.4-27.5 32Zm-74.4-58.9a451.2 451.2 0 0 1-41-7.9c3.7-12.9 8.3-26.2 13.5-39.5a473.3 473.3 0 0 0 27.5 47.4ZM245 114c9.3 9.6 18.6 20.3 27.8 32a619 619 0 0 0-55.3 0c9-11.7 18.3-22.4 27.5-32Zm-74 58.9a552.4 552.4 0 0 0-27.4 47.7c-5.4-13.4-10-26.8-13.8-39.8 13.1-3.1 26.9-5.8 41.2-7.9ZM80.5 298.1c-35.4-15.1-58.3-34.9-58.3-50.6 0-15.7 22.9-35.6 58.3-50.6 8.6-3.7 18-7 27.7-10.1 5.7 19.6 13.2 40 22.5 60.9a473.5 473.5 0 0 0-22.2 60.6c-9.9-3.1-19.3-6.5-28-10.2ZM134.3 441c-13.6-7.8-19.5-37.5-14.9-75.7 1.1-9.4 2.9-19.3 5.1-29.4 19.6 4.8 41 8.5 63.5 10.9a487.8 487.8 0 0 0 41.6 50c-32.6 30.3-63.2 46.9-84 46.9-4.5-.1-8.3-1-11.3-2.7Zm237.2-76.2c4.7 38.2-1.1 67.9-14.6 75.8-3 1.8-6.9 2.6-11.5 2.6-20.7 0-51.4-16.5-84-46.6 14-14.7 28-31.4 41.3-49.9a467 467 0 0 0 63.6-11 280 280 0 0 1 5.2 29.1Zm38.5-66.7c-8.6 3.7-18 7-27.7 10.1-5.7-19.6-13.2-40-22.5-60.9a473.5 473.5 0 0 0 22.2-60.6c9.9 3.1 19.3 6.5 28.1 10.2 35.4 15.1 58.3 34.9 58.3 50.6-.1 15.7-23 35.6-58.4 50.6Z" fill="#61DAFB"/><path d="M245.2 293.2a45.7 45.7 0 1 0 0-91.4 45.7 45.7 0 0 0 0 91.4Z" fill="#61DAFB"/><path d="M1302 226.5a47.3 47.3 0 1 0 0-94.7 47.3 47.3 0 0 0 0 94.7Z" fill="#FFC131"/><path fill-rule="evenodd" clip-rule="evenodd" d="M1392.3 332a219.7 219.7 0 0 1-62.4 23.6c6.3-17.9 8.5-37 6.5-55.9A127 127 0 1 0 1190 106a194 194 0 0 0-68.8 19.4A180.7 180.7 0 1 1 1392.3 332Zm-269-174.3 45.2 6.4 4.3-25.8a197.3 197.3 0 0 0-49.5 19.4Z" fill="#FFC131"/><path d="M1213.9 362.1a47.3 47.3 0 1 0 0-94.7 47.3 47.3 0 0 0 0 94.7Z" fill="#24C8DB"/><path fill-rule="evenodd" clip-rule="evenodd" d="M1114.7 162a210.3 210.3 0 0 1 64.5-23.7c-7 17.8-10 36.9-8.6 56A127 127 0 1 0 1317 387.8a194 194 0 0 0 68.8-19.3 180.7 180.7 0 1 1-271-206.5Z" fill="#24C8DB"/><defs><linearGradient id="a" x1="562.8" y1="82.5" x2="791.8" y2="393.5" gradientUnits="userSpaceOnUse"><stop stop-color="#41D1FF"/><stop offset="1" stop-color="#BD34FE"/></linearGradient><linearGradient id="b" x1="751.4" y1="58.3" x2="792.8" y2="342.5" gradientUnits="userSpaceOnUse"><stop stop-color="#FFEA83"/><stop offset=".1" stop-color="#FFDD35"/><stop offset="1" stop-color="#FFA800"/></linearGradient></defs></svg>